<?xml version="1.0" standalone="no"?>
<!DOCTYPE svg PUBLIC "-//W3C//DTD SVG 20010904//EN"
 "http://www.w3.org/TR/2001/REC-SVG-20010904/DTD/svg10.dtd">
<svg version="1.0" xmlns="http://www.w3.org/2000/svg"
 width="835.000000pt" height="835.000000pt" viewBox="0 0 835.000000 835.000000"
 preserveAspectRatio="xMidYMid meet">
<metadata>
Created by potrace 1.11, written by Peter Selinger 2001-2013
</metadata>
<g transform="translate(0.000000,835.000000) scale(0.100000,-0.100000)"
fill="#000000" stroke="none">
<path d="M820 8340 c-106 -13 -189 -38 -295 -90 -233 -114 -403 -312 -482
-565 l-28 -90 -3 -3370 c-2 -2481 0 -3389 8 -3443 57 -364 329 -652 708 -750
63 -16 273 -17 3447 -17 l3380 0 85 23 c333 88 576 330 676 672 18 63 19 163
22 3425 2 2351 -1 3381 -8 3430 -16 103 -65 239 -118 330 -67 114 -220 265
-332 328 -108 61 -239 102 -362 116 -114 13 -6591 13 -6698 1z m4949 -3092 c0
-161 -4 -342 -9 -403 -4 -60 -6 -112 -4 -115 3 -2 17 11 32 30 103 136 244
200 442 200 287 0 463 -124 537 -377 15 -51 17 -129 21 -635 l3 -578 -215 0
-215 0 -3 513 c-3 441 -6 519 -20 560 -42 126 -110 172 -245 171 -70 0 -91 -5
-140 -30 -100 -51 -151 -147 -173 -324 -5 -46 -10 -266 -10 -487 l0 -403 -215
0 -215 0 0 1085 0 1085 215 0 215 0 -1 -292z m-3707 193 c31 -28 33 -33 33
-98 0 -57 -4 -76 -24 -104 -34 -50 -68 -72 -120 -76 -89 -8 -150 62 -137 156
13 95 73 151 162 151 45 0 59 -5 86 -29z m1148 -34 c99 -26 288 -93 304 -107
5 -5 -21 -80 -60 -175 -52 -126 -72 -165 -84 -161 -8 3 -73 25 -145 50 -296
103 -491 82 -556 -59 -38 -82 -15 -173 61 -238 23 -20 137 -83 252 -141 115
-58 242 -128 282 -156 139 -96 218 -199 251 -327 20 -75 19 -242 0 -318 -58
-220 -248 -372 -527 -421 -72 -13 -131 -15 -263 -11 -206 7 -326 32 -487 101
l-38 16 0 205 0 205 38 -16 c283 -121 502 -170 653 -145 149 24 209 84 209
207 0 113 -57 165 -333 305 -232 117 -290 152 -358 216 -149 140 -213 335
-176 540 44 241 223 402 505 453 26 5 121 7 212 6 137 -3 181 -8 260 -29z
m1615 -476 c82 -22 183 -58 199 -72 7 -6 -91 -281 -113 -317 -6 -9 -40 -2
-132 29 -103 35 -138 42 -209 43 -107 1 -168 -16 -223 -64 -91 -80 -127 -194
-127 -406 0 -350 127 -491 415 -456 103 13 172 34 265 83 36 19 68 35 73 37 4
2 6 -79 5 -180 l-3 -183 -63 -31 c-99 -50 -179 -66 -345 -72 -170 -5 -265 7
-377 48 -149 54 -252 144 -319 282 -74 149 -85 211 -85 463 0 195 3 229 22
300 75 273 254 448 517 505 124 27 381 22 500 -9z m-2986 -723 c-82 -381 -156
-726 -164 -765 l-16 -73 -120 0 c-119 0 -119 0 -114 23 3 12 75 351 160 752
86 402 158 736 160 743 3 9 37 12 123 12 l118 0 -147 -692z"/>
</g>
</svg>
